<svg width="20" height="20" viewBox="0 0 20 20" fill="none" xmlns="http://www.w3.org/2000/svg">
<path d="M17.1454 1.88053L17.2935 1.90413L17.4367 1.94807C17.5298 1.98387 17.6176 2.0321 17.6971 2.09212L17.8103 2.19059L17.9079 2.3037C17.9678 2.38338 18.0163 2.47103 18.052 2.56412L18.0959 2.70816L18.1195 2.85628C18.1322 3.00522 18.1135 3.15588 18.0642 3.29817L18.0634 3.2998L13.1268 17.4079V17.4087C13.0559 17.611 12.9256 17.7873 12.7533 17.9149C12.5808 18.0425 12.3736 18.1154 12.1592 18.124C11.9449 18.1326 11.7327 18.077 11.5505 17.9637C11.3683 17.8503 11.2241 17.6846 11.1371 17.4884L8.48246 11.5168L2.51078 8.86213L2.50997 8.86132C2.31456 8.77399 2.15 8.62979 2.03715 8.44791C1.92434 8.26601 1.86825 8.05468 1.87683 7.84081L1.89555 7.68212C1.92556 7.52566 1.98976 7.37681 2.08517 7.24755L2.18933 7.12711C2.30198 7.01433 2.43897 6.92753 2.59054 6.87402L2.59216 6.8732L16.7002 1.93587L16.7027 1.93505C16.8452 1.88585 16.9962 1.8675 17.1454 1.88053ZM3.43201 7.90266L8.81694 10.2985L11.225 7.89127C11.4691 7.64735 11.8647 7.64727 12.1088 7.89127C12.3528 8.1353 12.3527 8.53097 12.1088 8.77506L9.70154 11.1815L12.0957 16.568L16.7596 3.23876L3.43201 7.90266Z" fill="white"/>
</svg>
